<?xml version="1.0" encoding="UTF-8"?>
<svg xmlns="http://www.w3.org/2000/svg" viewBox="0 0 727.81 645.6">
  <defs>
    <style>
      .cls-1 {
        fill: none;
        isolation: isolate;
      }

      .cls-2, .cls-3 {
        fill: #ec2426;
      }

      .cls-3 {
        mix-blend-mode: exclusion;
      }
    </style>
  </defs>
  <g class="cls-1">
    <g id="Layer_1" data-name="Layer 1">
      <g>
        <path class="cls-2" d="m118.87,284.18c2.54.43,3.63-3.11,1.29-4.19-14.76-6.77-28.6-13.5-45.54-17.45C25,250.96,5.28,312.23,1.37,350.03c-3.19,30.85-.73,63.52,6.45,93.61,13.69,57.38,37.62,115.76,80.91,157.31,11.92,11.44,25,20.37,39.2,28.63,31.58,18.35,83.8,21.94,116.99,5.49,24.73-12.26,43.91-33.91,58.88-57.78,16.38-26.13,25.82-54.33,31.71-84.26,26.16-120.37,25.49-372.98,26.18-421.63.13-9.28.28-18.56.99-27.81s2-18.47,4.42-27.42c.92-3.41,2.06-6.61,3.54-9.81.6-1.29,1.21-2.58,1.74-3.89.15-.37.98-1.92.67-2.33-.08-.11-.11-.17-.27-.12-5.25,1.72-10.13,5.01-12.1,10.17-6.48,17.02-6.58,35.7-6.71,53.92-.51,73.93-8.94,232.03-8.94,248.61-4.47,67.23-10.41,154.93-39.71,216.44-18.83,39.52-46.43,74.85-92.31,83.91-54.59,10.79-104.5-26.85-135.41-66.42-27.54-35.26-92.97-167.68-52.96-255.76,4.57-8.57,11.69-17.97,20.85-21.9,11.07-4.76,25.03-3.13,36.27,0,12.71,3.54,24.51,9.66,36.55,15.04.17.08.36.13.54.16Z"/>
        <path class="cls-2" d="m612.37,116.67c2.51-1.68.39-11.38,4.71-10.54,3.95,1.22,4.21,4.52,3.98,8.03-.33,5.05-7.49,32.6-1.19,44.75.13.25.27.47.44.68.88,1.12-1.08,3.89-1.75,5.15-.71,1.34-2.2,2.1-3.7,1.83-2.53-.46-4.85-1.24-6.85-2.38-3.33-1.9,2.57-36.3,5.01-43.53l-.32,1.67c-3.39,3.06-27.19,32.01-44.42,39.82-12.63,5.73-36.46,8.53-41.23-7.18-2.47-8.16,1.14-17.34,3.39-25.16.38-1.34,8.48-23.23,7.58-23.53-4.3,4.53-7.33,10.14-10.52,15.46-5.18,8.65-10.74,16.97-16.48,25.26-5.13,7.4-10.79,15.76-18.41,20.84-4.95,3.33-11.46,6.89-17.41,5.69-5.45-1.1-7.84-3.94-8.3-9.14-.5-5.71.61-13.35,1.53-18.96.05-.28.09-.52-.03-.77-.86.52-1.43,1.77-1.96,2.61-1.44,2.27-2.86,4.55-4.37,6.77-4.17,6.16-11.3,14.21-17.2,18.81-10.19,7.95-33.41,11.44-37.27-5.11-.6-2.55-.69-5.21-.55-7.82.6-11.02,15.03-50.7,15.15-53.72.11-2.7-2.01-3.51-5.26-2.16-3.09,1.3-4.56.57-5.34-1.86-1.1-3.44,1.24-3.01,3.47-3.47,7.21-1.47,11.89,1.13,12.3,8.65.25,4.46-1.19,9.24-2.06,13.58-1.38,6.91-2.8,13.83-3.77,20.81-1.34,9.74-3.96,30.23,11.86,27.59,13.95-2.33,22.58-16.92,28.62-28.37,4.37-8.28,6.4-12.7,10.76-20.99,1.01-1.92.71-4.1,3.46-3.15,2.74.95,3.16,3.69,2.75,6.39-4.93,32.56-5.66,43.94,2.34,44.77,19.24,1.7,51.28-67.02,55.89-69.14,1.47-1,1.31-2.37,4.59-1.06,3.15,1.26,3.56,4.16,3.22,7.02-.9,7.52-10.98,39.77,1.14,51.01,7.42,6.88,16.06,5.37,24.17.84,14.86-8.29,41.98-40.02,41.98-40.02Z"/>
        <path class="cls-3" d="m685.07,122c.82-.37.16-1.71-.73-1.63-5.51.47-20.67,2.49-31.17,4.06,0-5.78,1.93-15.69,4.66-23,.03-.08.23-.27.3-.31.71-.44,37.4-5.24,41.62-9.82.31-.33.06-.88-.39-.91-5.52-.47-33.73,4.63-44.18,5.3-1.5.1-4.54,3.35-5.63,5.78-2.61,5.82-4.89,19.02-5.69,24.04-.14.87-.2,1.28-.25,1.58-1.84.38-2.56.69-2.66.74-.69.29-1.82,5.23-1.77,6.03,0,.12,4.13-.82,4.13-.82-1.21,12.04,3.3,22.74,12.63,27.82,14,7.62,32.52,1.7,45.75-5.46,6.11-3.31,12.33-7.42,17.59-11.98,3.04-2.64,6.73-6.59,8.51-10.6.09-.31-.26-.56-.53-.39-4.79,5-9.86,9.14-15.45,12.44-7.36,4.34-16.59,9.61-25,11.25-10.23,1.99-21.87-.75-28.99-9.47-3.88-4.75-4.59-10-4.66-16.27,0,0,26.82-6.02,31.9-8.34Z"/>
      </g>
    </g>
  </g>
</svg>