<?xml version="1.0" standalone="no"?>
<!DOCTYPE svg PUBLIC "-//W3C//DTD SVG 20010904//EN"
 "http://www.w3.org/TR/2001/REC-SVG-20010904/DTD/svg10.dtd">
<svg version="1.0" xmlns="http://www.w3.org/2000/svg"
 width="500.000000pt" height="500.000000pt" viewBox="0 0 500.000000 500.000000"
 preserveAspectRatio="xMidYMid meet">
<metadata>
Created by potrace 1.14, written by Peter Selinger 2001-2017
</metadata>
<g transform="translate(0.000000,500.000000) scale(0.100000,-0.100000)"
fill="#000000" stroke="none">
<path d="M2298 4995 c-2 -1 -32 -5 -68 -9 -36 -3 -76 -8 -90 -10 -14 -3 -43
-7 -65 -11 -22 -3 -68 -12 -102 -20 -35 -8 -75 -17 -91 -20 -55 -10 -277 -86
-375 -129 -404 -177 -745 -445 -1003 -791 -41 -55 -78 -104 -82 -110 -8 -11
-95 -156 -129 -215 -109 -192 -226 -535 -259 -760 -3 -19 -7 -46 -10 -60 -26
-148 -26 -575 0 -720 3 -14 7 -42 10 -63 19 -127 87 -367 142 -504 267 -662
798 -1177 1468 -1424 76 -29 225 -73 276 -83 14 -2 45 -9 70 -15 67 -15 137
-26 265 -41 71 -8 489 -6 535 3 14 3 47 8 73 12 27 4 59 8 70 11 12 2 34 6 49
9 304 56 623 188 902 372 536 356 916 908 1057 1538 11 50 22 108 25 130 3 22
7 45 9 52 19 58 28 489 13 623 -14 124 -30 221 -48 290 -5 19 -11 46 -14 60
-13 64 -74 251 -113 345 -105 251 -261 501 -441 703 -78 89 -92 103 -178 183
-279 260 -700 492 -1040 574 -11 3 -46 11 -79 19 -183 45 -345 63 -577 63
-108 1 -198 0 -200 -2z"/>
</g>
</svg>
